<svg xmlns="http://www.w3.org/2000/svg" xmlns:xlink="http://www.w3.org/1999/xlink" width="1500" zoomAndPan="magnify" viewBox="0 0 1125 374.999991" height="500" preserveAspectRatio="xMidYMid meet" version="1.0"><defs><g/><clipPath id="cff25e6c7c"><path d="M 994 152 L 1087.765625 152 L 1087.765625 288 L 994 288 Z M 994 152 " clip-rule="nonzero"/></clipPath><clipPath id="cfb8d66620"><path d="M 823.015625 128 L 1024 128 L 1024 337.5 L 823.015625 337.5 Z M 823.015625 128 " clip-rule="nonzero"/></clipPath><clipPath id="0fef1950f0"><path d="M 852 128 L 1024 128 L 1024 337.5 L 852 337.5 Z M 852 128 " clip-rule="nonzero"/></clipPath><clipPath id="3d1da74fd5"><path d="M 823.015625 100 L 1024 100 L 1024 152 L 823.015625 152 Z M 823.015625 100 " clip-rule="nonzero"/></clipPath><clipPath id="43d32098d0"><path d="M 832 37.5 L 1019 37.5 L 1019 146 L 832 146 Z M 832 37.5 " clip-rule="nonzero"/></clipPath><clipPath id="2bb443419e"><rect x="0" width="805" y="0" height="143"/></clipPath></defs><g clip-path="url(#cff25e6c7c)"><path fill="#804828" d="M 1016.523438 154.027344 C 1016.523438 154.027344 1019.832031 160.519531 1026.699219 157.605469 C 1033.566406 154.691406 1039.355469 151.097656 1054.503906 152.328125 C 1069.65625 153.558594 1083.808594 161.066406 1087.265625 179.078125 C 1090.707031 197.003906 1077.089844 222.953125 1060.007812 238.167969 C 1042.929688 253.382812 1013.960938 276.601562 994.453125 287.507812 L 1000.492188 255.378906 C 1000.492188 255.378906 1006.34375 260.539062 1016.804688 254.230469 C 1027.265625 247.921875 1053.425781 227.847656 1062.222656 212.632812 C 1071.019531 197.421875 1075.992188 182.804688 1065.53125 172.1875 C 1056.335938 162.847656 1025.335938 165.59375 1009.921875 196.855469 L 1016.523438 154.007812 Z M 1016.523438 154.027344 " fill-opacity="1" fill-rule="nonzero"/></g><path fill="#8b4f2c" d="M 1043.082031 158.402344 C 1044.042969 161.300781 1057.449219 159.019531 1067.625 165.496094 C 1078.851562 172.617188 1080.363281 183.054688 1082.578125 183.238281 C 1084.789062 183.421875 1083.207031 171.003906 1074.128906 163.628906 C 1061.789062 153.609375 1041.882812 154.824219 1043.0625 158.402344 Z M 1043.082031 158.402344 " fill-opacity="1" fill-rule="nonzero"/><g clip-path="url(#cfb8d66620)"><path fill="#8b4f2c" d="M 923.128906 128.972656 L 822.980469 128.972656 C 822.980469 128.972656 848.042969 293.832031 850.253906 307.480469 C 852.632812 322.210938 856.855469 325.457031 873.054688 330.050781 C 889.253906 334.644531 905.765625 337.324219 923.128906 337.324219 C 940.488281 337.324219 957.003906 334.644531 973.199219 330.050781 C 989.398438 325.457031 993.621094 322.210938 996 307.480469 C 998.210938 293.816406 1023.273438 128.972656 1023.273438 128.972656 Z M 923.128906 128.972656 " fill-opacity="1" fill-rule="nonzero"/></g><g clip-path="url(#0fef1950f0)"><path fill="#804828" d="M 960.128906 274.589844 C 937.480469 310.109375 888.585938 318.765625 852.152344 315.554688 C 855.011719 323.675781 860.347656 326.441406 873.039062 330.035156 C 889.234375 334.628906 905.75 337.308594 923.109375 337.308594 C 940.472656 337.308594 956.988281 334.628906 973.183594 330.035156 C 989.382812 325.441406 993.605469 322.195312 995.984375 307.464844 C 998.195312 293.796875 1023.257812 128.957031 1023.257812 128.957031 L 996.832031 128.957031 C 991.894531 173.019531 981.183594 241.566406 960.128906 274.574219 Z M 960.128906 274.589844 " fill-opacity="1" fill-rule="nonzero"/></g><g clip-path="url(#3d1da74fd5)"><path fill="#ad6a45" d="M 923.128906 100.777344 C 871.574219 100.777344 822.980469 115.125 822.980469 128.972656 C 822.980469 142.824219 885.894531 151.546875 923.128906 151.546875 C 960.363281 151.546875 1023.273438 142.839844 1023.273438 128.972656 C 1023.273438 115.109375 974.679688 100.777344 923.128906 100.777344 Z M 923.128906 100.777344 " fill-opacity="1" fill-rule="nonzero"/></g><path fill="#804828" d="M 923.128906 107.085938 C 888.917969 107.085938 834.289062 115.308594 838.132812 128.972656 C 841.988281 142.671875 897.816406 143.855469 923.128906 143.855469 C 948.4375 143.855469 1004.25 142.65625 1008.125 128.972656 C 1011.980469 115.308594 957.335938 107.085938 923.128906 107.085938 Z M 923.128906 107.085938 " fill-opacity="1" fill-rule="nonzero"/><path fill="#915736" d="M 849.140625 155.324219 C 855.742188 154.992188 860.566406 164.878906 865.65625 207.675781 C 873.039062 269.730469 877.03125 296.777344 869.695312 297.542969 C 862.363281 298.308594 858.15625 282.628906 849.140625 224.886719 C 841.40625 175.347656 840.328125 155.773438 849.140625 155.339844 Z M 849.140625 155.324219 " fill-opacity="1" fill-rule="nonzero"/><path fill="#52271c" d="M 906.613281 142.074219 C 906.613281 142.074219 920.019531 145.703125 926.519531 152.777344 C 933.023438 159.851562 934.238281 158.804688 939.410156 155.308594 C 944.582031 151.8125 947.789062 150.296875 953.925781 150.863281 C 958.699219 151.3125 964.785156 154.691406 963.125 167.492188 C 961.460938 180.292969 959.898438 192.542969 968.476562 192.925781 C 977.058594 193.308594 974.332031 181.640625 974.132812 174 C 973.933594 166.359375 973.75 148.183594 984.027344 146.851562 C 994.304688 145.519531 994.9375 156.605469 1000.671875 156.988281 C 1006.410156 157.371094 1006.59375 143.273438 1011 137.714844 C 1015.40625 132.152344 1018.898438 132.402344 1020.179688 129.875 C 1021.460938 127.34375 1016.6875 122.25 1016.6875 122.25 C 1016.6875 122.25 1010.453125 132.121094 998.328125 132.121094 C 986.207031 132.121094 979.269531 133.269531 974.117188 135.949219 C 968.960938 138.628906 956.96875 131.585938 949.136719 134.617188 C 930.792969 141.691406 906.582031 142.074219 906.582031 142.074219 Z M 906.613281 142.074219 " fill-opacity="1" fill-rule="nonzero"/><path fill="#704b3d" d="M 937.910156 152.746094 C 936.949219 153.09375 935.25 153.726562 934.070312 153.757812 C 932.773438 153.792969 931.527344 153.195312 930.34375 152.726562 C 929.046875 152.226562 929.066406 152.8125 929.960938 153.59375 C 933.089844 156.324219 935.648438 155.890625 938.328125 153.675781 C 938.761719 153.328125 939.324219 152.210938 937.910156 152.726562 Z M 937.910156 152.746094 " fill-opacity="1" fill-rule="nonzero"/><path fill="#704b3d" d="M 967.097656 165.3125 C 965.898438 165.210938 964.453125 174.148438 964.554688 181.441406 C 964.652344 188.632812 965.535156 190.097656 967.230469 190.046875 C 968.960938 189.996094 968.742188 186.882812 968.460938 180.027344 C 968.226562 174.050781 967.914062 165.363281 967.082031 165.292969 Z M 967.097656 165.3125 " fill-opacity="1" fill-rule="nonzero"/><path fill="#704b3d" d="M 1004.5 149.964844 C 1003.882812 149.746094 1002.386719 152.113281 1000.691406 152.113281 C 998.992188 152.113281 996.75 150.097656 996.382812 150.914062 C 996.101562 151.546875 998.84375 154.839844 1001.039062 154.691406 C 1003.234375 154.542969 1005.128906 150.179688 1004.5 149.964844 Z M 1004.5 149.964844 " fill-opacity="1" fill-rule="nonzero"/><g clip-path="url(#43d32098d0)"><path fill="#ecd7bb" d="M 847.675781 136.914062 C 843.851562 134.316406 831.332031 132.453125 832.710938 117.9375 C 833.523438 109.332031 844.585938 105.753906 849.140625 104.640625 C 850.207031 104.371094 850.9375 104.15625 851.003906 102.257812 C 851.1875 97.066406 853.28125 83.25 873.652344 81.183594 C 875.035156 81.050781 875.847656 81.003906 876.246094 78.457031 C 876.761719 75.125 877.746094 69.234375 881.902344 66.070312 C 887.957031 61.476562 909.425781 60.628906 914.664062 57.183594 C 919.902344 53.738281 919.902344 47.710938 917.691406 42.550781 C 915.476562 37.390625 918.789062 36.527344 925.953125 39.105469 C 933.121094 41.6875 950.183594 48.277344 957.882812 55.453125 C 964.585938 61.695312 966.199219 65.773438 966.683594 73.128906 C 966.863281 76.007812 967.511719 76.292969 969.792969 76.109375 C 974.546875 75.726562 983.3125 75.324219 989.8125 80.121094 C 995.683594 84.449219 995.800781 91.472656 996.035156 96.117188 C 996.234375 99.910156 996.78125 100.195312 999.875 100.445312 C 1004.382812 100.808594 1011.183594 101.558594 1015.042969 107.085938 C 1021.710938 116.625 1018.167969 129.738281 1007.707031 133.1875 C 997.246094 136.632812 988.714844 134.898438 983.210938 137.199219 C 977.707031 139.496094 973.035156 140.925781 965.035156 139.777344 C 957.035156 138.628906 951.265625 136.613281 946.308594 138.347656 C 941.355469 140.078125 928.699219 146.085938 915.476562 145.804688 C 902.257812 145.519531 889.570312 143.820312 880.523438 143.855469 C 874.101562 143.871094 859.234375 144.753906 847.660156 136.914062 Z M 847.675781 136.914062 " fill-opacity="1" fill-rule="nonzero"/></g><path fill="#f7ebdb" d="M 987.4375 107.203125 C 983.695312 109.199219 980.785156 113.144531 976.808594 115.160156 C 972.835938 117.171875 968.542969 118.488281 964.171875 119.035156 C 962.742188 119.21875 952.261719 120.300781 951.300781 118.355469 C 950.335938 116.40625 956.472656 115.074219 959.449219 114.34375 C 963.105469 113.445312 966.796875 112.34375 969.890625 110.132812 C 972.984375 107.917969 975.394531 104.355469 975.480469 100.445312 C 975.511719 98.929688 975.230469 97.28125 975.996094 96 C 976.960938 94.386719 979.136719 94.050781 980.351562 92.621094 C 981.816406 90.890625 981.265625 87.992188 979.671875 86.378906 C 978.089844 84.765625 975.796875 84.164062 973.601562 83.882812 C 967.679688 83.132812 961.726562 84.296875 955.789062 84.664062 C 949.851562 85.03125 938.644531 82.550781 938.675781 80.820312 C 938.710938 79.089844 945.378906 80.820312 952.128906 76.640625 C 954.691406 75.058594 956.96875 72.53125 957.269531 69.449219 C 957.683594 65.339844 954.292969 61.808594 950.683594 60.113281 C 947.074219 58.414062 943.015625 57.847656 939.507812 55.917969 C 936.832031 54.4375 934.570312 52.222656 931.875 50.773438 C 929.179688 49.324219 925.65625 48.808594 923.261719 50.757812 C 920.152344 53.289062 920.402344 58.597656 917.441406 61.3125 C 916.292969 62.359375 914.730469 62.957031 914.015625 64.355469 C 913.28125 65.804688 913.730469 67.621094 913.265625 69.183594 C 911.953125 73.511719 905.132812 73.027344 903.054688 77.007812 C 902.507812 78.039062 902.355469 79.304688 901.660156 80.21875 C 901.011719 81.050781 899.996094 81.484375 899.265625 82.25 C 895.921875 85.644531 905.199219 88.308594 907.0625 88.777344 C 907.261719 88.824219 907.460938 88.875 907.628906 89.007812 C 908.226562 89.476562 907.578125 89.941406 907.113281 90.089844 C 903.988281 91.089844 900.710938 89.890625 897.601562 89.457031 C 894.472656 89.023438 891.363281 88.507812 888.238281 88.109375 C 881.753906 87.277344 874.46875 87.808594 869.828125 92.605469 C 868.316406 94.167969 867.152344 96.632812 868.164062 98.578125 C 868.78125 99.777344 870.042969 100.425781 871.242188 101.011719 C 878.808594 104.707031 886.542969 108.433594 894.839844 109.464844 C 897.203125 109.75 901.859375 110.097656 901.59375 111.445312 C 901.324219 112.796875 884.894531 112.695312 872.539062 109.484375 C 867.285156 108.117188 861.714844 108.851562 856.292969 108.898438 C 853.363281 108.933594 850.40625 109.199219 847.675781 110.316406 C 840.527344 113.226562 840.375 122.300781 844.800781 127.058594 C 846.996094 129.425781 850.105469 130.574219 853.132812 131.519531 C 857.804688 132.984375 862.578125 134.183594 867.417969 134.882812 C 871.457031 135.484375 875.53125 135.734375 879.605469 135.980469 C 884.710938 136.296875 889.816406 136.613281 894.921875 136.949219 C 904.71875 137.5625 914.5625 138.179688 924.324219 137.046875 C 934.386719 135.882812 944.199219 132.871094 954.292969 132.121094 C 960.777344 131.636719 967.746094 131.96875 973.183594 128.273438 C 976.527344 125.996094 979.003906 122.347656 982.695312 120.785156 C 984.742188 119.902344 987.019531 119.753906 989.148438 119.136719 C 991.277344 118.519531 993.472656 117.257812 994.238281 115.09375 C 995.652344 111.128906 991.328125 105.136719 987.484375 107.183594 Z M 987.4375 107.203125 " fill-opacity="1" fill-rule="nonzero"/><path fill="#52271c" d="M 956.769531 76.375 C 955.972656 76.308594 955.890625 73.429688 955.15625 68.984375 C 954.957031 67.886719 954.773438 66.605469 954.375 65.804688 C 954.175781 65.390625 953.960938 65.140625 953.644531 64.90625 C 953.328125 64.671875 952.863281 64.472656 952.28125 64.308594 C 951.699219 64.140625 951.015625 64.039062 950.25 63.90625 C 949.46875 63.773438 948.65625 63.640625 947.824219 63.457031 C 946.160156 63.109375 944.363281 62.609375 942.601562 61.710938 C 940.820312 60.8125 939.242188 59.546875 938.027344 57.914062 C 937.429688 57.117188 936.929688 56.199219 936.582031 55.25 C 936.414062 54.785156 936.265625 54.269531 936.183594 53.835938 C 936.082031 53.386719 936.015625 52.988281 935.964844 52.636719 C 935.832031 51.921875 935.699219 51.421875 935.535156 51.125 C 935.449219 50.972656 935.382812 50.875 935.234375 50.722656 C 935.085938 50.589844 934.886719 50.425781 934.652344 50.257812 C 933.589844 49.542969 932.507812 48.828125 931.59375 48.175781 C 927.851562 45.5625 925.671875 43.683594 926.070312 42.984375 C 926.46875 42.285156 929.132812 43.300781 933.171875 45.398438 C 934.1875 45.929688 935.25 46.496094 936.464844 47.179688 C 936.78125 47.363281 937.148438 47.59375 937.53125 47.910156 C 937.910156 48.210938 938.3125 48.660156 938.59375 49.125 C 939.191406 50.074219 939.425781 51.039062 939.609375 51.839844 C 939.792969 52.671875 939.90625 53.304688 940.140625 53.835938 C 940.375 54.402344 940.671875 54.953125 941.070312 55.46875 C 941.871094 56.5 943 57.414062 944.316406 58.082031 C 945.644531 58.765625 947.125 59.195312 948.621094 59.546875 C 949.371094 59.710938 950.117188 59.863281 950.882812 60.011719 C 951.648438 60.160156 952.480469 60.3125 953.328125 60.578125 C 954.175781 60.84375 955.074219 61.242188 955.855469 61.910156 C 956.652344 62.558594 957.269531 63.492188 957.570312 64.339844 C 957.902344 65.1875 958.019531 65.988281 958.117188 66.6875 C 958.199219 67.386719 958.234375 68.003906 958.265625 68.617188 C 958.367188 71.066406 958.167969 73.027344 957.867188 74.359375 C 957.570312 75.691406 957.167969 76.390625 956.785156 76.359375 Z M 956.769531 76.375 " fill-opacity="1" fill-rule="nonzero"/><path fill="#52271c" d="M 982.199219 83.464844 C 981.796875 83.816406 981.214844 83.699219 980.46875 83.632812 C 979.71875 83.550781 978.722656 83.449219 977.425781 83.632812 C 976.128906 83.832031 974.496094 84.332031 972.667969 85.214844 C 970.824219 86.0625 968.742188 87.3125 966.199219 88.460938 C 963.671875 89.589844 960.761719 90.355469 958.019531 90.039062 C 956.652344 89.90625 955.324219 89.492188 954.175781 88.859375 C 953.609375 88.542969 953.0625 88.144531 952.597656 87.742188 C 952.148438 87.3125 951.730469 86.878906 951.414062 86.410156 C 950.085938 84.5625 949.835938 82.550781 950.101562 81.300781 C 950.382812 80.019531 951.03125 79.539062 951.5 79.6875 C 952.015625 79.835938 952.261719 80.4375 952.644531 81.167969 C 953.046875 81.882812 953.578125 82.800781 954.523438 83.582031 C 954.757812 83.78125 955.023438 83.949219 955.273438 84.113281 C 955.554688 84.265625 955.804688 84.398438 956.15625 84.515625 C 956.804688 84.746094 957.550781 84.898438 958.398438 84.914062 C 960.097656 84.964844 962.042969 84.464844 964.1875 83.5 C 966.332031 82.550781 968.527344 81.320312 970.789062 80.453125 C 973.050781 79.585938 975.363281 79.136719 977.390625 79.335938 C 979.421875 79.519531 981.035156 80.417969 981.816406 81.367188 C 982.613281 82.332031 982.597656 83.148438 982.199219 83.464844 Z M 982.199219 83.464844 " fill-opacity="1" fill-rule="nonzero"/><path fill="#52271c" d="M 920.949219 117.789062 C 920.734375 117.65625 920.683594 117.207031 920.984375 116.492188 C 921.28125 115.773438 922.011719 114.824219 923.226562 114.042969 C 924.425781 113.277344 926.136719 112.679688 928.082031 112.59375 C 930.011719 112.496094 932.109375 112.84375 934.171875 113.195312 C 936.199219 113.527344 938.34375 113.792969 940.140625 113.292969 C 941.023438 113.0625 941.820312 112.59375 942.652344 111.894531 C 943.484375 111.195312 944.296875 110.265625 945.179688 109.167969 C 946.0625 108.085938 946.992188 106.851562 948.171875 105.621094 C 949.335938 104.40625 950.816406 103.089844 952.863281 102.359375 C 953.875 102.007812 954.859375 101.859375 955.773438 101.777344 C 956.671875 101.710938 957.503906 101.691406 958.367188 101.710938 C 960.0625 101.726562 961.710938 101.859375 963.304688 101.941406 C 964.902344 102.042969 966.414062 102.09375 967.828125 102.007812 C 969.277344 101.925781 970.507812 101.710938 971.886719 101.292969 C 973.265625 100.894531 974.730469 100.359375 976.34375 99.976562 C 977.160156 99.777344 977.972656 99.628906 978.871094 99.546875 C 979.785156 99.480469 980.683594 99.496094 981.566406 99.628906 C 983.328125 99.894531 985.140625 100.59375 986.605469 102.007812 C 987.320312 102.707031 987.933594 103.589844 988.300781 104.503906 C 988.683594 105.40625 988.851562 106.253906 988.964844 106.984375 C 989.183594 108.449219 989.265625 109.582031 989.515625 110.25 C 989.632812 110.582031 989.746094 110.78125 989.878906 110.980469 C 990.03125 111.164062 990.296875 111.378906 990.644531 111.578125 C 991.011719 111.796875 991.445312 111.996094 991.910156 112.230469 C 992.390625 112.460938 992.90625 112.726562 993.355469 112.996094 C 994.289062 113.527344 995.121094 114.109375 995.851562 114.710938 C 997.3125 115.90625 998.378906 117.140625 999.144531 118.222656 C 1000.640625 120.417969 1000.921875 121.933594 1000.507812 122.199219 C 1000.042969 122.5 999.0625 121.515625 997.28125 120.050781 C 996.382812 119.320312 995.269531 118.488281 993.90625 117.6875 C 993.222656 117.289062 992.476562 116.90625 991.675781 116.574219 C 991.261719 116.390625 990.863281 116.242188 990.414062 116.074219 C 989.949219 115.90625 989.414062 115.726562 988.816406 115.457031 C 988.21875 115.175781 987.550781 114.808594 986.902344 114.191406 C 986.273438 113.578125 985.757812 112.777344 985.425781 111.996094 C 984.773438 110.414062 984.660156 109 984.410156 107.902344 C 984.292969 107.351562 984.144531 106.886719 983.976562 106.554688 C 983.8125 106.21875 983.628906 105.96875 983.34375 105.722656 C 982.796875 105.238281 981.898438 104.871094 980.867188 104.753906 C 980.351562 104.6875 979.804688 104.6875 979.269531 104.753906 C 978.738281 104.820312 978.105469 104.9375 977.476562 105.105469 C 976.210938 105.4375 974.832031 105.953125 973.25 106.4375 C 971.6875 106.9375 969.824219 107.285156 968.09375 107.386719 C 966.347656 107.484375 964.636719 107.417969 962.972656 107.335938 C 961.308594 107.234375 959.746094 107.117188 958.265625 107.085938 C 957.535156 107.085938 956.785156 107.085938 956.121094 107.117188 C 955.472656 107.167969 954.90625 107.253906 954.457031 107.417969 C 953.5625 107.71875 952.613281 108.433594 951.679688 109.367188 C 950.75 110.296875 949.851562 111.414062 948.871094 112.546875 C 947.90625 113.675781 946.84375 114.84375 945.5625 115.859375 C 944.28125 116.855469 942.734375 117.671875 941.171875 117.988281 C 939.625 118.320312 938.160156 118.289062 936.863281 118.136719 C 935.566406 117.988281 934.386719 117.707031 933.320312 117.421875 C 931.210938 116.855469 929.480469 116.355469 927.984375 116.207031 C 926.503906 116.023438 925.273438 116.191406 924.273438 116.457031 C 922.28125 117.023438 921.398438 118.089844 920.917969 117.804688 Z M 920.949219 117.789062 " fill-opacity="1" fill-rule="nonzero"/><path fill="#52271c" d="M 945.761719 76.390625 C 945.761719 76.957031 944.582031 77.257812 942.769531 78.039062 C 941.871094 78.4375 940.804688 78.972656 939.707031 79.769531 C 938.609375 80.570312 937.5625 81.617188 936.464844 83.082031 C 935.367188 84.515625 934.304688 86.328125 932.921875 88.34375 C 932.222656 89.359375 931.441406 90.40625 930.496094 91.4375 C 929.5625 92.453125 928.449219 93.46875 927.101562 94.300781 C 926.421875 94.71875 925.6875 95.085938 924.90625 95.367188 C 924.109375 95.667969 923.277344 95.851562 922.496094 95.949219 C 921.714844 96.066406 920.949219 96.101562 920.25 96.132812 C 919.570312 96.148438 918.871094 96.183594 918.171875 96.199219 C 915.394531 96.28125 912.535156 96.367188 909.589844 96.464844 C 908.160156 96.5 906.878906 96.597656 905.816406 96.867188 C 904.75 97.132812 903.9375 97.597656 903.136719 98.28125 C 901.574219 99.660156 900.511719 101.824219 899.996094 103.972656 C 899.730469 105.089844 899.546875 106.351562 899.28125 107.683594 C 899.015625 109.015625 898.632812 110.449219 897.964844 111.796875 C 897.285156 113.160156 896.371094 114.242188 895.457031 115.109375 C 894.539062 115.972656 893.625 116.640625 892.777344 117.207031 C 891.929688 117.773438 891.148438 118.269531 890.433594 118.722656 C 889.71875 119.171875 889.136719 119.585938 888.585938 120.019531 C 887.488281 120.867188 886.707031 121.71875 886.160156 122.449219 C 885.078125 123.914062 884.910156 125.078125 884.363281 125.144531 C 884.113281 125.164062 883.832031 124.878906 883.664062 124.214844 C 883.5 123.546875 883.5 122.484375 883.898438 121.25 C 884.3125 120.019531 885.113281 118.652344 886.277344 117.371094 C 886.839844 116.722656 887.539062 116.089844 888.238281 115.492188 C 888.917969 114.925781 889.636719 114.34375 890.382812 113.710938 C 891.832031 112.511719 893.195312 111.195312 893.84375 109.648438 C 894.175781 108.867188 894.40625 107.902344 894.574219 106.753906 C 894.757812 105.605469 894.890625 104.289062 895.1875 102.824219 C 895.503906 101.328125 896.003906 99.8125 896.753906 98.347656 C 897.5 96.882812 898.480469 95.46875 899.8125 94.253906 C 900.476562 93.652344 901.226562 93.121094 902.039062 92.671875 C 902.855469 92.222656 903.738281 91.90625 904.585938 91.671875 C 906.296875 91.222656 907.945312 91.140625 909.457031 91.089844 C 912.402344 91.023438 915.277344 90.957031 918.054688 90.871094 C 918.738281 90.871094 919.417969 90.839844 920.101562 90.839844 C 920.75 90.839844 921.347656 90.789062 921.878906 90.738281 C 922.429688 90.671875 922.894531 90.589844 923.34375 90.441406 C 923.792969 90.289062 924.242188 90.089844 924.675781 89.839844 C 926.421875 88.84375 927.933594 87.160156 929.28125 85.445312 C 930.644531 83.683594 931.941406 81.835938 933.386719 80.269531 C 934.820312 78.6875 936.464844 77.40625 938.027344 76.675781 C 939.589844 75.910156 941.039062 75.574219 942.21875 75.476562 C 943.398438 75.375 944.316406 75.492188 944.914062 75.691406 C 945.511719 75.890625 945.8125 76.160156 945.8125 76.40625 Z M 945.761719 76.390625 " fill-opacity="1" fill-rule="nonzero"/><path fill="#52271c" d="M 868.050781 103.222656 C 868.546875 103.375 868.832031 103.941406 868.878906 104.921875 C 868.914062 105.886719 868.78125 107.320312 867.832031 109.117188 C 867.351562 110 866.570312 110.964844 865.539062 111.664062 C 864.523438 112.378906 863.394531 112.8125 862.3125 113.128906 C 861.78125 113.292969 861.246094 113.410156 860.730469 113.542969 C 860.25 113.660156 859.75 113.792969 859.25 113.910156 C 858.269531 114.160156 857.273438 114.460938 856.308594 114.792969 C 854.378906 115.476562 852.75 116.390625 851.535156 117.421875 C 850.339844 118.4375 849.488281 119.652344 848.925781 120.71875 C 848.359375 121.785156 848.058594 122.730469 847.777344 123.464844 C 847.511719 124.179688 847.246094 124.730469 846.730469 124.863281 C 846.246094 124.996094 845.664062 124.648438 845.234375 123.664062 C 844.800781 122.699219 844.601562 121.085938 845.035156 119.238281 C 845.449219 117.390625 846.480469 115.34375 848.226562 113.59375 C 849.957031 111.863281 852.21875 110.566406 854.59375 109.714844 C 855.792969 109.28125 856.957031 108.964844 858.070312 108.71875 C 859.183594 108.46875 860.25 108.300781 861.082031 108.132812 C 861.929688 107.96875 862.59375 107.769531 863.109375 107.535156 C 863.625 107.300781 864.007812 107.019531 864.425781 106.621094 C 865.207031 105.820312 865.835938 104.789062 866.417969 104.105469 C 867 103.421875 867.535156 103.058594 868.03125 103.207031 Z M 868.050781 103.222656 " fill-opacity="1" fill-rule="nonzero"/><path fill="#52271c" d="M 925.9375 55.902344 C 926.4375 56 926.652344 57.234375 926.4375 59.394531 C 926.386719 59.929688 926.304688 60.527344 926.171875 61.175781 C 926.054688 61.808594 925.921875 62.527344 925.605469 63.425781 C 925.4375 63.855469 925.222656 64.339844 924.890625 64.824219 C 924.558594 65.304688 924.109375 65.789062 923.644531 66.136719 C 923.179688 66.503906 922.695312 66.785156 922.230469 67.019531 C 921.765625 67.253906 921.332031 67.4375 920.847656 67.621094 C 918.953125 68.351562 916.742188 68.816406 914.347656 68.800781 C 913.148438 68.800781 911.902344 68.667969 910.65625 68.386719 C 909.40625 68.117188 908.261719 67.734375 907.164062 67.4375 C 906.082031 67.121094 905.050781 66.871094 904.121094 66.804688 C 903.203125 66.738281 902.191406 66.855469 901.078125 67.101562 C 898.863281 67.601562 896.621094 68.535156 894.691406 69.898438 C 892.746094 71.265625 891.25 73.011719 890.464844 74.925781 L 890.316406 75.277344 L 890.199219 75.640625 C 890.117188 75.890625 890.035156 76.125 889.984375 76.375 C 889.851562 76.890625 889.75 77.472656 889.652344 78.089844 C 889.453125 79.320312 889.234375 80.785156 888.6875 82.285156 C 888.40625 83.015625 888.054688 83.765625 887.554688 84.464844 C 887.074219 85.164062 886.441406 85.828125 885.695312 86.328125 C 884.960938 86.828125 884.179688 87.144531 883.449219 87.328125 C 882.71875 87.511719 882.019531 87.59375 881.386719 87.609375 C 880.121094 87.644531 879.042969 87.527344 878.109375 87.460938 C 877.195312 87.378906 876.347656 87.34375 875.550781 87.359375 C 873.96875 87.394531 872.621094 87.644531 871.542969 88.058594 C 870.460938 88.476562 869.613281 89.058594 868.964844 89.609375 C 867.683594 90.707031 867.21875 91.722656 866.667969 91.605469 C 866.417969 91.554688 866.21875 91.222656 866.203125 90.574219 C 866.203125 89.941406 866.386719 88.992188 866.96875 87.925781 C 867.566406 86.878906 868.546875 85.746094 869.976562 84.832031 C 871.425781 83.914062 873.238281 83.316406 875.199219 83.050781 C 876.179688 82.917969 877.210938 82.867188 878.242188 82.851562 C 879.257812 82.851562 880.222656 82.867188 881.070312 82.785156 C 881.917969 82.699219 882.566406 82.484375 882.964844 82.152344 C 883.347656 81.851562 883.730469 81.285156 884.015625 80.4375 C 884.296875 79.605469 884.445312 78.554688 884.628906 77.242188 C 884.730469 76.589844 884.828125 75.875 884.996094 75.109375 C 885.078125 74.726562 885.195312 74.34375 885.3125 73.945312 L 885.492188 73.363281 L 885.726562 72.796875 C 886.941406 69.75 889.1875 67.21875 891.761719 65.421875 C 894.359375 63.589844 897.183594 62.476562 899.996094 61.875 C 901.410156 61.578125 902.9375 61.410156 904.484375 61.558594 C 906.015625 61.710938 907.347656 62.109375 908.527344 62.476562 C 909.707031 62.859375 910.738281 63.242188 911.6875 63.492188 C 912.617188 63.757812 913.550781 63.890625 914.464844 63.972656 C 916.292969 64.105469 918.023438 63.90625 919.550781 63.507812 C 919.933594 63.40625 920.316406 63.292969 920.648438 63.191406 C 920.984375 63.074219 921.25 62.957031 921.464844 62.859375 C 921.679688 62.742188 921.832031 62.640625 921.980469 62.492188 C 922.128906 62.34375 922.296875 62.144531 922.429688 61.894531 C 922.710938 61.425781 922.976562 60.8125 923.226562 60.230469 C 923.476562 59.664062 923.710938 59.148438 923.925781 58.679688 C 924.773438 56.816406 925.371094 55.769531 925.886719 55.867188 Z M 925.9375 55.902344 " fill-opacity="1" fill-rule="nonzero"/><path fill="#84635e" d="M 923.476562 80.386719 L 918.769531 76.226562 C 918.421875 75.925781 918.472656 75.257812 918.886719 74.761719 C 919.304688 74.261719 919.902344 74.09375 920.25 74.394531 L 924.957031 78.554688 C 925.304688 78.855469 925.257812 79.519531 924.839844 80.019531 C 924.425781 80.519531 923.828125 80.6875 923.476562 80.386719 Z M 923.476562 80.386719 " fill-opacity="1" fill-rule="nonzero"/><path fill="#a5817e" d="M 923.460938 79.503906 L 919.785156 76.273438 C 919.585938 76.109375 919.617188 75.726562 919.851562 75.441406 C 920.085938 75.160156 920.433594 75.058594 920.632812 75.242188 L 924.308594 78.472656 C 924.507812 78.636719 924.476562 79.019531 924.242188 79.304688 C 924.007812 79.585938 923.660156 79.6875 923.460938 79.503906 Z M 923.460938 79.503906 " fill-opacity="1" fill-rule="nonzero"/><path fill="#84635e" d="M 936.097656 72.28125 L 941.222656 68.386719 C 941.585938 68.101562 942.203125 68.300781 942.566406 68.835938 C 942.933594 69.367188 942.933594 70.03125 942.566406 70.316406 L 937.445312 74.210938 C 937.082031 74.492188 936.464844 74.292969 936.097656 73.761719 C 935.734375 73.230469 935.734375 72.5625 936.097656 72.28125 Z M 936.097656 72.28125 " fill-opacity="1" fill-rule="nonzero"/><path fill="#a5817e" d="M 936.929688 72.464844 L 940.921875 69.433594 C 941.136719 69.265625 941.488281 69.382812 941.6875 69.683594 C 941.902344 69.984375 941.902344 70.367188 941.6875 70.53125 L 937.695312 73.5625 C 937.480469 73.726562 937.128906 73.613281 936.929688 73.3125 C 936.714844 73.011719 936.714844 72.628906 936.929688 72.464844 Z M 936.929688 72.464844 " fill-opacity="1" fill-rule="nonzero"/><path fill="#84635e" d="M 904.070312 81.117188 L 896.9375 78.503906 C 896.421875 78.324219 896.152344 77.65625 896.371094 77.039062 C 896.585938 76.425781 897.167969 76.074219 897.699219 76.257812 L 904.835938 78.871094 C 905.351562 79.054688 905.617188 79.71875 905.398438 80.335938 C 905.183594 80.953125 904.601562 81.300781 904.070312 81.117188 Z M 904.070312 81.117188 " fill-opacity="1" fill-rule="nonzero"/><path fill="#a5817e" d="M 903.636719 80.253906 L 898.082031 78.222656 C 897.785156 78.105469 897.652344 77.738281 897.765625 77.390625 C 897.882812 77.039062 898.214844 76.839844 898.515625 76.941406 L 904.070312 78.972656 C 904.371094 79.089844 904.503906 79.453125 904.386719 79.804688 C 904.269531 80.152344 903.9375 80.351562 903.636719 80.253906 Z M 903.636719 80.253906 " fill-opacity="1" fill-rule="nonzero"/><path fill="#84635e" d="M 877.644531 96.382812 L 883.949219 92.988281 C 884.414062 92.738281 885.011719 93.019531 885.3125 93.601562 C 885.609375 94.183594 885.460938 94.867188 885.011719 95.117188 L 878.710938 98.511719 C 878.242188 98.761719 877.644531 98.480469 877.34375 97.898438 C 877.046875 97.316406 877.195312 96.632812 877.644531 96.382812 Z M 877.644531 96.382812 " fill-opacity="1" fill-rule="nonzero"/><path fill="#a5817e" d="M 878.492188 96.683594 L 883.398438 94.035156 C 883.664062 93.902344 884.015625 94.035156 884.179688 94.386719 C 884.347656 94.71875 884.261719 95.101562 884.015625 95.25 L 879.109375 97.898438 C 878.84375 98.03125 878.492188 97.898438 878.328125 97.546875 C 878.160156 97.214844 878.242188 96.832031 878.492188 96.683594 Z M 878.492188 96.683594 " fill-opacity="1" fill-rule="nonzero"/><path fill="#84635e" d="M 866.769531 127.527344 L 860.28125 123.796875 C 859.816406 123.53125 859.667969 122.832031 859.984375 122.265625 C 860.28125 121.683594 860.914062 121.433594 861.398438 121.71875 L 867.882812 125.445312 C 868.347656 125.710938 868.5 126.410156 868.183594 126.976562 C 867.867188 127.542969 867.25 127.808594 866.769531 127.527344 Z M 866.769531 127.527344 " fill-opacity="1" fill-rule="nonzero"/><path fill="#a5817e" d="M 866.484375 126.59375 L 861.429688 123.679688 C 861.164062 123.53125 861.082031 123.132812 861.265625 122.800781 C 861.445312 122.464844 861.796875 122.332031 862.0625 122.484375 L 867.117188 125.394531 C 867.382812 125.546875 867.46875 125.945312 867.285156 126.277344 C 867.101562 126.609375 866.753906 126.742188 866.484375 126.59375 Z M 866.484375 126.59375 " fill-opacity="1" fill-rule="nonzero"/><path fill="#84635e" d="M 908.445312 130.523438 L 902.773438 124.894531 C 902.355469 124.480469 902.375 123.765625 902.804688 123.28125 C 903.238281 122.800781 903.9375 122.75 904.351562 123.164062 L 910.023438 128.792969 C 910.4375 129.207031 910.421875 129.921875 909.988281 130.40625 C 909.558594 130.890625 908.859375 130.9375 908.445312 130.523438 Z M 908.445312 130.523438 " fill-opacity="1" fill-rule="nonzero"/><path fill="#a5817e" d="M 908.359375 129.539062 L 903.9375 125.164062 C 903.703125 124.929688 903.703125 124.511719 903.953125 124.246094 C 904.203125 123.980469 904.601562 123.949219 904.835938 124.179688 L 909.257812 128.558594 C 909.492188 128.792969 909.492188 129.207031 909.242188 129.472656 C 908.992188 129.738281 908.59375 129.773438 908.359375 129.539062 Z M 908.359375 129.539062 " fill-opacity="1" fill-rule="nonzero"/><path fill="#84635e" d="M 936.796875 127.609375 L 928.53125 129.839844 C 927.933594 130.007812 927.320312 129.625 927.152344 128.972656 C 926.984375 128.324219 927.351562 127.691406 927.949219 127.527344 L 936.214844 125.296875 C 936.8125 125.128906 937.429688 125.511719 937.597656 126.160156 C 937.761719 126.792969 937.394531 127.441406 936.796875 127.609375 Z M 936.796875 127.609375 " fill-opacity="1" fill-rule="nonzero"/><path fill="#a5817e" d="M 935.898438 127.160156 L 929.464844 128.890625 C 929.113281 128.992188 928.765625 128.757812 928.683594 128.410156 C 928.597656 128.058594 928.796875 127.675781 929.148438 127.578125 L 935.582031 125.84375 C 935.933594 125.746094 936.28125 125.976562 936.367188 126.328125 C 936.449219 126.675781 936.25 127.058594 935.898438 127.160156 Z M 935.898438 127.160156 " fill-opacity="1" fill-rule="nonzero"/><path fill="#84635e" d="M 968.078125 121.050781 L 961.84375 125.527344 C 961.394531 125.863281 960.726562 125.679688 960.363281 125.128906 C 959.996094 124.578125 960.078125 123.882812 960.546875 123.546875 L 966.78125 119.070312 C 967.230469 118.738281 967.894531 118.921875 968.261719 119.46875 C 968.628906 120.019531 968.542969 120.71875 968.078125 121.050781 Z M 968.078125 121.050781 " fill-opacity="1" fill-rule="nonzero"/><path fill="#a5817e" d="M 967.148438 120.902344 L 962.292969 124.378906 C 962.027344 124.5625 961.660156 124.464844 961.460938 124.164062 C 961.261719 123.847656 961.292969 123.449219 961.558594 123.265625 L 966.414062 119.785156 C 966.683594 119.601562 967.046875 119.703125 967.246094 120.003906 C 967.445312 120.320312 967.414062 120.71875 967.148438 120.902344 Z M 967.148438 120.902344 " fill-opacity="1" fill-rule="nonzero"/><path fill="#84635e" d="M 938.609375 105.554688 L 932.523438 101.078125 C 932.074219 100.742188 932.007812 100.042969 932.375 99.511719 C 932.738281 98.980469 933.386719 98.796875 933.835938 99.128906 L 939.925781 103.605469 C 940.375 103.941406 940.441406 104.640625 940.074219 105.171875 C 939.707031 105.703125 939.058594 105.886719 938.609375 105.554688 Z M 938.609375 105.554688 " fill-opacity="1" fill-rule="nonzero"/><path fill="#a5817e" d="M 938.445312 104.605469 L 933.703125 101.125 C 933.457031 100.945312 933.421875 100.542969 933.621094 100.226562 C 933.820312 99.929688 934.203125 99.828125 934.453125 100.011719 L 939.191406 103.488281 C 939.441406 103.671875 939.476562 104.074219 939.277344 104.390625 C 939.074219 104.6875 938.695312 104.789062 938.445312 104.605469 Z M 938.445312 104.605469 " fill-opacity="1" fill-rule="nonzero"/><path fill="#84635e" d="M 917.308594 109.433594 L 908.726562 105.703125 C 908.09375 105.4375 907.796875 104.722656 908.027344 104.105469 C 908.277344 103.488281 908.976562 103.222656 909.609375 103.488281 L 918.1875 107.21875 C 918.820312 107.484375 919.121094 108.199219 918.886719 108.816406 C 918.636719 109.433594 917.9375 109.699219 917.308594 109.433594 Z M 917.308594 109.433594 " fill-opacity="1" fill-rule="nonzero"/><path fill="#a5817e" d="M 916.773438 108.484375 L 910.089844 105.570312 C 909.742188 105.421875 909.558594 105.003906 909.691406 104.65625 C 909.824219 104.304688 910.222656 104.15625 910.589844 104.304688 L 917.273438 107.21875 C 917.625 107.367188 917.804688 107.785156 917.671875 108.132812 C 917.539062 108.484375 917.140625 108.632812 916.773438 108.484375 Z M 916.773438 108.484375 " fill-opacity="1" fill-rule="nonzero"/><path fill="#84635e" d="M 957.019531 97.847656 L 949.851562 95.882812 C 949.335938 95.734375 949.039062 95.101562 949.203125 94.46875 C 949.371094 93.835938 949.917969 93.4375 950.449219 93.570312 L 957.617188 95.535156 C 958.132812 95.683594 958.433594 96.316406 958.265625 96.949219 C 958.101562 97.582031 957.550781 97.980469 957.019531 97.847656 Z M 957.019531 97.847656 " fill-opacity="1" fill-rule="nonzero"/><path fill="#a5817e" d="M 956.539062 97.015625 L 950.949219 95.484375 C 950.652344 95.402344 950.484375 95.035156 950.585938 94.683594 C 950.683594 94.320312 951 94.101562 951.28125 94.167969 L 956.871094 95.699219 C 957.167969 95.785156 957.335938 96.148438 957.234375 96.5 C 957.136719 96.867188 956.820312 97.082031 956.539062 97.015625 Z M 956.539062 97.015625 " fill-opacity="1" fill-rule="nonzero"/><path fill="#84635e" d="M 970.972656 95.382812 L 975.363281 88.675781 C 975.679688 88.191406 976.359375 88.09375 976.894531 88.460938 C 977.410156 88.824219 977.574219 89.523438 977.257812 90.023438 L 972.867188 96.730469 C 972.550781 97.214844 971.871094 97.316406 971.339844 96.949219 C 970.824219 96.582031 970.65625 95.882812 970.972656 95.382812 Z M 970.972656 95.382812 " fill-opacity="1" fill-rule="nonzero"/><path fill="#a5817e" d="M 971.886719 95.152344 L 975.296875 89.925781 C 975.480469 89.640625 975.863281 89.589844 976.160156 89.808594 C 976.460938 90.023438 976.558594 90.421875 976.378906 90.691406 L 972.96875 95.917969 C 972.785156 96.199219 972.402344 96.25 972.101562 96.03125 C 971.804688 95.816406 971.703125 95.417969 971.886719 95.152344 Z M 971.886719 95.152344 " fill-opacity="1" fill-rule="nonzero"/><g transform="matrix(1, 0, 0, 1, 19, 149)"><g clip-path="url(#2bb443419e)"><g fill="#894f2e" fill-opacity="1"><g transform="translate(0.844738, 114.172016)"><g><path d="M 192.15625 0 L 152.09375 0 L 152.09375 -60.875 L 116.3125 0 L 86.4375 0 L 50.703125 -60.875 L 50.703125 0 L 10.640625 0 L 10.640625 -95.484375 L 58.21875 -95.484375 L 101.40625 -27.28125 L 144.515625 -95.484375 L 192.15625 -95.484375 Z M 192.15625 0 "/></g></g><g transform="translate(203.650063, 114.172016)"><g><path d="M 72.1875 2.0625 C 48.59375 2.0625 31.226562 -2.796875 20.09375 -12.515625 C 10.25 -21.117188 5.328125 -32.847656 5.328125 -47.703125 C 5.328125 -62.515625 10.25 -74.226562 20.09375 -82.84375 C 31.226562 -92.550781 48.59375 -97.40625 72.1875 -97.40625 C 95.789062 -97.40625 113.160156 -92.550781 124.296875 -82.84375 C 134.140625 -74.226562 139.0625 -62.515625 139.0625 -47.703125 C 139.0625 -32.847656 134.140625 -21.117188 124.296875 -12.515625 C 113.160156 -2.796875 95.789062 2.0625 72.1875 2.0625 Z M 72.1875 -23.546875 C 81.863281 -23.546875 88.960938 -26.320312 93.484375 -31.875 C 97.117188 -36.351562 98.9375 -41.628906 98.9375 -47.703125 C 98.9375 -53.785156 97.117188 -59.039062 93.484375 -63.46875 C 88.960938 -69.0625 81.863281 -71.859375 72.1875 -71.859375 C 62.519531 -71.859375 55.398438 -69.0625 50.828125 -63.46875 C 47.191406 -59.039062 45.375 -53.785156 45.375 -47.703125 C 45.375 -41.628906 47.191406 -36.351562 50.828125 -31.875 C 55.398438 -26.320312 62.519531 -23.546875 72.1875 -23.546875 Z M 72.1875 -23.546875 "/></g></g><g transform="translate(348.035743, 114.172016)"><g><path d="M 72.1875 2.0625 C 48.59375 2.0625 31.226562 -2.796875 20.09375 -12.515625 C 10.25 -21.066406 5.328125 -32.773438 5.328125 -47.640625 C 5.328125 -62.492188 10.25 -74.226562 20.09375 -82.84375 C 31.226562 -92.507812 48.59375 -97.34375 72.1875 -97.34375 C 86.03125 -97.34375 97.472656 -95.753906 106.515625 -92.578125 C 115.566406 -89.410156 122.597656 -85.078125 127.609375 -79.578125 C 132.628906 -74.078125 135.957031 -67.78125 137.59375 -60.6875 L 95.484375 -60.6875 C 91.265625 -68.09375 83.5 -71.796875 72.1875 -71.796875 C 62.519531 -71.796875 55.398438 -69 50.828125 -63.40625 C 47.191406 -58.96875 45.375 -53.710938 45.375 -47.640625 C 45.375 -41.566406 47.191406 -36.3125 50.828125 -31.875 C 55.398438 -26.28125 62.519531 -23.484375 72.1875 -23.484375 C 83.5 -23.484375 91.265625 -27.210938 95.484375 -34.671875 L 137.59375 -34.671875 C 135.957031 -27.523438 132.628906 -21.203125 127.609375 -15.703125 C 122.597656 -10.203125 115.566406 -5.863281 106.515625 -2.6875 C 97.472656 0.476562 86.03125 2.0625 72.1875 2.0625 Z M 72.1875 2.0625 "/></g></g><g transform="translate(490.957607, 114.172016)"><g><path d="M 141.0625 0 L 101 0 L 101 -38.53125 L 50.703125 -38.53125 L 50.703125 0 L 10.640625 0 L 10.640625 -95.484375 L 50.703125 -95.484375 L 50.703125 -56.890625 L 101 -56.890625 L 101 -95.484375 L 141.0625 -95.484375 Z M 141.0625 0 "/></g></g><g transform="translate(642.662377, 114.172016)"><g><path d="M 160.359375 0 L 119.765625 0 L 110.78125 -15.640625 L 50.5625 -15.640625 L 41.578125 0 L 1 0 L 62.078125 -95.40625 L 99.265625 -95.40625 Z M 97.28125 -39.25 L 80.703125 -68.203125 L 64.078125 -39.25 Z M 97.28125 -39.25 "/></g></g></g></g></g></svg>